# xmcd CD database file
#
# Track frame offsets:
#	183
#	27975
#	46803
#	68615
#	87975
#	100848
#	130355
#	143415
#	164203
#	177748
#	196490
#	217590
#	231635
#	247060
#	263123
#	280523
#
# Disc length: 3982 seconds
#
# Revision: 0
# Processed by: cddbd v1.5.2PL0 Copyright (c) Steve Scherf et al.
# Submitted via: CDex 1.70beta1
#
DISCID=ea0f8c10
DTITLE=Pete Allen Jazz Band - Pete Allen Jazz Band With Clinton Ford
DYEAR=1900
DGENRE=Jazz
TTITLE0=Royal Garden Blues
TTITLE1=Melancholy Baby - Clinton Ford Vocal
TTITLE2=Swanee River
TTITLE3=Apple Blossom Time - Pete Allen Vocal
TTITLE4=Sailing Down Chesapeake Bay - Clinton Ford Vocal
TTITLE5=Mood Ingigo
TTITLE6=Bill Bailey - Clinton Ford Vocal
TTITLE7=Mystic Jypsy
TTITLE8=Drivin' Blues - Pete Allen Vocal
TTITLE9=Nobody Knows You When You're Down And Out - Clinton Ford Vocal
TTITLE10=Bei Mir Bist Du Schone
TTITLE11=Dancing On The Ceiling - Pete Allen Vocal
TTITLE12=Georgia On My Mind - Nick Millward Vocal
TTITLE13=Sweet Sue Just You
TTITLE14=Wreck Of The Old 97 - Pete Allen - Nick Millward Vocals
TTITLE15=Ain't Nobody Here But Us Chickens - Pete Allen Vocal
EXTD=
EXTT0=
EXTT1=
EXTT2=
EXTT3=
EXTT4=
EXTT5=
EXTT6=
EXTT7=
EXTT8=
EXTT9=
EXTT10=
EXTT11=
EXTT12=
EXTT13=
EXTT14=
EXTT15=
PLAYORDER=
